<?xml version="1.0" encoding="iso-8859-1"?>
<!-- Generator: Adobe Illustrator 19.0.0, SVG Export Plug-In . SVG Version: 6.00 Build 0)  -->
<svg version="1.1" id="Layer_1" xmlns="http://www.w3.org/2000/svg" xmlns:xlink="http://www.w3.org/1999/xlink" x="0px" y="0px"
	 viewBox="0 0 511.984 511.984" style="enable-background:new 0 0 511.984 511.984;" xml:space="preserve">
<path style="fill:#371e03;" d="M511.984,255.992c0,141.386-114.605,255.992-255.992,255.992C114.622,511.984,0,397.378,0,255.992
	C0,114.621,114.622,0,255.992,0C397.379,0,511.984,114.621,511.984,255.992z"/>
<path style="fill:#FECD57;" d="M213.338,255.992c0-87.466,52.654-162.635,127.995-195.556
	c-26.139-11.422-54.998-17.766-85.341-17.766c-117.809,0-213.321,95.513-213.321,213.322c0,117.824,95.513,213.336,213.321,213.336
	c30.343,0,59.202-6.359,85.341-17.779C265.992,418.628,213.338,343.473,213.338,255.992z"/>
<path style="fill:#F5BA45;" d="M85.342,255.992c0-110.59,84.169-201.541,191.947-212.259c-7.016-0.703-14.109-1.063-21.297-1.063
	c-117.809,0-213.321,95.513-213.321,213.322c0,117.824,95.513,213.336,213.321,213.336c7.188,0,14.281-0.375,21.297-1.063
	C169.511,457.532,85.342,366.597,85.342,255.992z"/>
</svg>
